<svg xmlns="http://www.w3.org/2000/svg" xmlns:xlink="http://www.w3.org/1999/xlink" width="1920" height="1080" viewBox="0 0 1920 1080">
  <defs>
    <linearGradient id="linear-gradient" x1="0.743" y1="0.839" x2="0.065" y2="0.115" gradientUnits="objectBoundingBox">
      <stop offset="0" stop-color="#303075"/>
      <stop offset="1" stop-color="#a799ec"/>
    </linearGradient>
    <linearGradient id="linear-gradient-2" x1="-0.459" y1="-0.192" x2="1.181" y2="1" gradientUnits="objectBoundingBox">
      <stop offset="0" stop-color="#f4f3f5"/>
      <stop offset="1" stop-color="#8970e2"/>
    </linearGradient>
    <linearGradient id="linear-gradient-3" x1="-0.459" y1="-0.192" x2="1.181" y2="1" gradientUnits="objectBoundingBox">
      <stop offset="0" stop-color="#a799ec"/>
      <stop offset="1" stop-color="#303075"/>
    </linearGradient>
    <linearGradient id="linear-gradient-4" x1="1.32" y1="0.622" x2="-0.168" y2="0.5" xlink:href="#linear-gradient"/>
    <filter id="Rectangle_4" x="453" y="590" width="317" height="123" filterUnits="userSpaceOnUse">
      <feOffset dy="3" input="SourceAlpha"/>
      <feGaussianBlur stdDeviation="3" result="blur"/>
      <feFlood flood-opacity="0.161"/>
      <feComposite operator="in" in2="blur"/>
      <feComposite in="SourceGraphic"/>
    </filter>
    <filter id="Rectangle_7" x="794" y="590" width="317" height="123" filterUnits="userSpaceOnUse">
      <feOffset dy="3" input="SourceAlpha"/>
      <feGaussianBlur stdDeviation="3" result="blur-2"/>
      <feFlood flood-opacity="0.161"/>
      <feComposite operator="in" in2="blur-2"/>
      <feComposite in="SourceGraphic"/>
    </filter>
    <filter id="Rectangle_8" x="1133" y="590" width="317" height="123" filterUnits="userSpaceOnUse">
      <feOffset dy="3" input="SourceAlpha"/>
      <feGaussianBlur stdDeviation="3" result="blur-3"/>
      <feFlood flood-opacity="0.161"/>
      <feComposite operator="in" in2="blur-3"/>
      <feComposite in="SourceGraphic"/>
    </filter>
    <filter id="Rectangle_3">
      <feOffset dy="3" input="SourceAlpha"/>
      <feGaussianBlur stdDeviation="3" result="blur-4"/>
      <feFlood flood-opacity="0.161" result="color"/>
      <feComposite operator="out" in="SourceGraphic" in2="blur-4"/>
      <feComposite operator="in" in="color"/>
      <feComposite operator="in" in2="SourceGraphic"/>
    </filter>
    <filter id="Rectangle_9">
      <feOffset dy="3" input="SourceAlpha"/>
      <feGaussianBlur stdDeviation="3" result="blur-5"/>
      <feFlood flood-opacity="0.161" result="color-2"/>
      <feComposite operator="out" in="SourceGraphic" in2="blur-5"/>
      <feComposite operator="in" in="color-2"/>
      <feComposite operator="in" in2="SourceGraphic"/>
    </filter>
    <filter id="Rectangle_9-2">
      <feOffset dy="3" input="SourceAlpha"/>
      <feGaussianBlur stdDeviation="3" result="blur-6"/>
      <feFlood flood-opacity="0.161" result="color-3"/>
      <feComposite operator="out" in="SourceGraphic" in2="blur-6"/>
      <feComposite operator="in" in="color-3"/>
      <feComposite operator="in" in2="SourceGraphic"/>
    </filter>
    <filter id="Rectangle_9-3">
      <feOffset dy="3" input="SourceAlpha"/>
      <feGaussianBlur stdDeviation="3" result="blur-7"/>
      <feFlood flood-opacity="0.161" result="color-4"/>
      <feComposite operator="out" in="SourceGraphic" in2="blur-7"/>
      <feComposite operator="in" in="color-4"/>
      <feComposite operator="in" in2="SourceGraphic"/>
    </filter>
    <filter id="Rectangle_9-4">
      <feOffset dy="3" input="SourceAlpha"/>
      <feGaussianBlur stdDeviation="3" result="blur-8"/>
      <feFlood flood-opacity="0.161" result="color-5"/>
      <feComposite operator="out" in="SourceGraphic" in2="blur-8"/>
      <feComposite operator="in" in="color-5"/>
      <feComposite operator="in" in2="SourceGraphic"/>
    </filter>
    <filter id="favorite-svgrepo-com">
      <feOffset dy="3" input="SourceAlpha"/>
      <feGaussianBlur stdDeviation="3" result="blur-9"/>
      <feFlood flood-color="#b7b7e1" flood-opacity="0.103" result="color-6"/>
      <feComposite operator="out" in="SourceGraphic" in2="blur-9"/>
      <feComposite operator="in" in="color-6"/>
      <feComposite operator="in" in2="SourceGraphic"/>
    </filter>
    <filter id="favorite-svgrepo-com-2">
      <feOffset dy="3" input="SourceAlpha"/>
      <feGaussianBlur stdDeviation="3" result="blur-10"/>
      <feFlood flood-color="#b7b7e1" flood-opacity="0.103" result="color-7"/>
      <feComposite operator="out" in="SourceGraphic" in2="blur-10"/>
      <feComposite operator="in" in="color-7"/>
      <feComposite operator="in" in2="SourceGraphic"/>
    </filter>
    <clipPath id="clip-Web_1920_2">
      <rect width="1920" height="1080"/>
    </clipPath>
  </defs>
  <g id="Web_1920_2" data-name="Web 1920 – 2" clip-path="url(#clip-Web_1920_2)">
    <rect width="1920" height="1080" fill="#fff"/>
    <rect id="Rectangle_1" data-name="Rectangle 1" width="1972" height="1126" transform="translate(-36 -19)" fill="url(#linear-gradient)"/>
    <g id="Ellipse_2" data-name="Ellipse 2" transform="translate(1779 29)" stroke="#fff" stroke-width="0.4" fill="url(#linear-gradient-2)">
      <circle cx="19" cy="19" r="19" stroke="none"/>
      <circle cx="19" cy="19" r="18.8" fill="none"/>
    </g>
    <g id="Ellipse_3" data-name="Ellipse 3" transform="translate(1837 29)" stroke="#fff" stroke-width="0.4" fill="url(#linear-gradient-3)">
      <circle cx="19" cy="19" r="19" stroke="none"/>
      <circle cx="19" cy="19" r="18.8" fill="none"/>
    </g>
    <text id="memento" transform="translate(863 296)" fill="#f4f3f5" font-size="67" font-family="Shine in Valentine"><tspan x="0" y="0">memento</tspan></text>
    <g id="Rectangle_2" data-name="Rectangle 2" transform="translate(553 485)" fill="#a799ec" stroke="#707070" stroke-width="0.3">
      <rect width="647" height="55" rx="14" stroke="none"/>
      <rect x="0.15" y="0.15" width="646.7" height="54.7" rx="13.85" fill="none"/>
    </g>
    <g transform="matrix(1, 0, 0, 1, 0, 0)" filter="url(#Rectangle_4)">
      <g id="Rectangle_4-2" data-name="Rectangle 4" transform="translate(462 596)" stroke="#707070" stroke-width="0.3" fill="url(#linear-gradient-4)">
        <rect width="299" height="105" rx="14" stroke="none"/>
        <rect x="0.15" y="0.15" width="298.7" height="104.7" rx="13.85" fill="none"/>
      </g>
    </g>
    <g transform="matrix(1, 0, 0, 1, 0, 0)" filter="url(#Rectangle_7)">
      <g id="Rectangle_7-2" data-name="Rectangle 7" transform="translate(803 596)" stroke="#707070" stroke-width="0.3" fill="url(#linear-gradient-4)">
        <rect width="299" height="105" rx="14" stroke="none"/>
        <rect x="0.15" y="0.15" width="298.7" height="104.7" rx="13.85" fill="none"/>
      </g>
    </g>
    <g transform="matrix(1, 0, 0, 1, 0, 0)" filter="url(#Rectangle_8)">
      <g id="Rectangle_8-2" data-name="Rectangle 8" transform="translate(1142 596)" stroke="#707070" stroke-width="0.3" fill="url(#linear-gradient-4)">
        <rect width="299" height="105" rx="14" stroke="none"/>
        <rect x="0.15" y="0.15" width="298.7" height="104.7" rx="13.85" fill="none"/>
      </g>
    </g>
    <g data-type="innerShadowGroup">
      <rect id="Rectangle_3-2" data-name="Rectangle 3" width="134" height="55" rx="14" transform="translate(1213 485)" fill="#8970e2"/>
      <g transform="matrix(1, 0, 0, 1, 0, 0)" filter="url(#Rectangle_3)">
        <rect id="Rectangle_3-3" data-name="Rectangle 3" width="134" height="55" rx="14" transform="translate(1213 485)" fill="#fff"/>
      </g>
      <g id="Rectangle_3-4" data-name="Rectangle 3" transform="translate(1213 485)" fill="none" stroke="#707070" stroke-width="0.3">
        <rect width="134" height="55" rx="14" stroke="none"/>
        <rect x="0.15" y="0.15" width="133.7" height="54.7" rx="13.85" fill="none"/>
      </g>
    </g>
    <text id="Did_you_forget_something_" data-name="Did you forget something?" transform="translate(699 461)" fill="#fff" font-size="40" font-family="Poppins-Light, Poppins" font-weight="300"><tspan x="0" y="0">Did you forget something?</tspan></text>
    <text id="Write_down_your_task..." data-name="Write down your task..." transform="translate(594 520)" fill="rgba(255,255,255,0.44)" font-size="20" font-family="Poppins-Light, Poppins" font-weight="300"><tspan x="0" y="0">Write down your task...</tspan></text>
    <text id="Put_Laundry" data-name="Put Laundry" transform="translate(480 634)" fill="#fffcfc" font-size="18" font-family="Poppins-Light, Poppins" font-weight="300"><tspan x="0" y="0">Put Laundry</tspan></text>
    <text id="Wash_the_dishes" data-name="Wash the dishes" transform="translate(819 634)" fill="rgba(183,183,225,0.64)" font-size="18" font-family="Poppins-Light, Poppins" font-weight="300" text-decoration="line-through"><tspan x="0" y="0">Wash the dishes</tspan></text>
    <text id="Feed_the_cat" data-name="Feed the cat" transform="translate(1158 634)" fill="rgba(183,183,225,0.64)" font-size="18" font-family="Poppins-Light, Poppins" font-weight="300" text-decoration="line-through"><tspan x="0" y="0">Feed the cat</tspan></text>
    <path id="write-svgrepo-com" d="M19.451,19.451,16.37,18.424,6.1,8.154,8.155,6.1l10.27,10.27Z" transform="translate(564.532 500.225)" fill="rgba(255,255,255,0.44)"/>
    <g id="Group_2" data-name="Group 2" transform="translate(-82.899)">
      <text id="Save_it" data-name="Save it" transform="translate(1346 520)" fill="#f4f3f5" font-size="20" font-family="Poppins-Light, Poppins" font-weight="300"><tspan x="0" y="0">Save it</tspan></text>
      <g id="submit-success-check-mark-svgrepo-com" transform="translate(1280.965 470.573)">
        <path id="Path_1" data-name="Path 1" d="M52.206,54.85a.742.742,0,0,0-1.217.846,9.65,9.65,0,1,1-10.673-3.733.743.743,0,1,0-.423-1.425A11.137,11.137,0,1,0,52.206,54.85Z" transform="translate(0 -18.636)" fill="#f4f3f5"/>
        <path id="Path_2" data-name="Path 2" d="M228.813,33.326A9.6,9.6,0,0,1,232,35a.742.742,0,1,0,.92-1.165,11.059,11.059,0,0,0-3.711-1.93.743.743,0,0,0-.423,1.425Zm-3.281-.616a.853.853,0,0,0,.245.156.7.7,0,0,0,.564,0,.861.861,0,0,0,.245-.156.742.742,0,0,0,.215-.527.779.779,0,0,0-.215-.527.742.742,0,0,0-.675-.215.483.483,0,0,0-.134.045.549.549,0,0,0-.134.067l-.111.089a.759.759,0,0,0-.156.824A.861.861,0,0,0,225.533,32.71Zm-6.012,8.84a.846.846,0,0,0,0,1.2l4.246,4.275a.846.846,0,0,0,1.2,0l7.63-7.667a.863.863,0,0,0-1.2-1.24l-7.036,7.036-3.637-3.607a.854.854,0,0,0-1.2,0Z" transform="translate(-182.991 0)" fill="#f4f3f5"/>
      </g>
    </g>
    <g id="delete-1-svgrepo-com" transform="translate(718 615)">
      <path id="Path_3" data-name="Path 3" d="M20,8H4A1,1,0,0,1,4,6H20a1,1,0,0,1,0,2Z" fill="#fffcfc"/>
      <path id="Path_4" data-name="Path 4" d="M14.331,22H9.669a3,3,0,0,1-2.952-2.463l-1.7-9.358a1,1,0,0,1,1.968-.358l1.7,9.358A1,1,0,0,0,9.669,20h4.662a1,1,0,0,0,.984-.821l1.7-9.358a1,1,0,1,1,1.968.358l-1.7,9.358A3,3,0,0,1,14.331,22Z" fill="#fffcfc"/>
      <path id="Path_5" data-name="Path 5" d="M11,2h2a3,3,0,0,1,3,3V7a1,1,0,0,1-1,1H9A1,1,0,0,1,8,7V5A3,3,0,0,1,11,2Zm3,4V5a1,1,0,0,0-1-1H11a1,1,0,0,0-1,1V6Z" fill="#fffcfc"/>
    </g>
    <g id="delete-1-svgrepo-com-2" data-name="delete-1-svgrepo-com" transform="translate(1057 615)">
      <path id="Path_3-2" data-name="Path 3" d="M20,8H4A1,1,0,0,1,4,6H20a1,1,0,0,1,0,2Z" fill="rgba(183,183,225,0.64)"/>
      <path id="Path_4-2" data-name="Path 4" d="M14.331,22H9.669a3,3,0,0,1-2.952-2.463l-1.7-9.358a1,1,0,0,1,1.968-.358l1.7,9.358A1,1,0,0,0,9.669,20h4.662a1,1,0,0,0,.984-.821l1.7-9.358a1,1,0,1,1,1.968.358l-1.7,9.358A3,3,0,0,1,14.331,22Z" fill="rgba(183,183,225,0.64)"/>
      <path id="Path_5-2" data-name="Path 5" d="M11,2h2a3,3,0,0,1,3,3V7a1,1,0,0,1-1,1H9A1,1,0,0,1,8,7V5A3,3,0,0,1,11,2Zm3,4V5a1,1,0,0,0-1-1H11a1,1,0,0,0-1,1V6Z" fill="rgba(183,183,225,0.64)"/>
    </g>
    <g id="delete-1-svgrepo-com-3" data-name="delete-1-svgrepo-com" transform="translate(1396 615)">
      <path id="Path_3-3" data-name="Path 3" d="M20,8H4A1,1,0,0,1,4,6H20a1,1,0,0,1,0,2Z" fill="rgba(183,183,225,0.64)"/>
      <path id="Path_4-3" data-name="Path 4" d="M14.331,22H9.669a3,3,0,0,1-2.952-2.463l-1.7-9.358a1,1,0,0,1,1.968-.358l1.7,9.358A1,1,0,0,0,9.669,20h4.662a1,1,0,0,0,.984-.821l1.7-9.358a1,1,0,1,1,1.968.358l-1.7,9.358A3,3,0,0,1,14.331,22Z" fill="rgba(183,183,225,0.64)"/>
      <path id="Path_5-3" data-name="Path 5" d="M11,2h2a3,3,0,0,1,3,3V7a1,1,0,0,1-1,1H9A1,1,0,0,1,8,7V5A3,3,0,0,1,11,2Zm3,4V5a1,1,0,0,0-1-1H11a1,1,0,0,0-1,1V6Z" fill="rgba(183,183,225,0.64)"/>
    </g>
    <g id="done-all-svgrepo-com" transform="translate(683.864 613.184)">
      <path id="Path_6" data-name="Path 6" d="M22.6,25.632a1.132,1.132,0,0,1-.8-.333l-.71-.71a1.136,1.136,0,0,1,1.508-1.694L33.153,12.333a1.136,1.136,0,0,1,1.607,1.607L23.4,25.3A1.132,1.132,0,0,1,22.6,25.632Z" transform="translate(-8.964 -5.184)" fill="#fffcfc"/>
      <path id="Path_7" data-name="Path 7" d="M8.816,25.632a1.132,1.132,0,0,1-.8-.333l-5.68-5.68a1.136,1.136,0,0,1,1.607-1.607l4.877,4.877L19.373,12.333a1.136,1.136,0,0,1,1.607,1.607L9.619,25.3A1.132,1.132,0,0,1,8.816,25.632Z" transform="translate(-0.864 -5.184)" fill="#fffcfc"/>
    </g>
    <g id="done-all-svgrepo-com-2" data-name="done-all-svgrepo-com" transform="translate(1022.864 613.184)">
      <path id="Path_6-2" data-name="Path 6" d="M22.6,25.632a1.132,1.132,0,0,1-.8-.333l-.71-.71a1.136,1.136,0,0,1,1.508-1.694L33.153,12.333a1.136,1.136,0,0,1,1.607,1.607L23.4,25.3A1.132,1.132,0,0,1,22.6,25.632Z" transform="translate(-8.964 -5.184)" fill="rgba(183,183,225,0.64)"/>
      <path id="Path_7-2" data-name="Path 7" d="M8.816,25.632a1.132,1.132,0,0,1-.8-.333l-5.68-5.68a1.136,1.136,0,0,1,1.607-1.607l4.877,4.877L19.373,12.333a1.136,1.136,0,0,1,1.607,1.607L9.619,25.3A1.132,1.132,0,0,1,8.816,25.632Z" transform="translate(-0.864 -5.184)" fill="rgba(183,183,225,0.64)"/>
    </g>
    <g id="done-all-svgrepo-com-3" data-name="done-all-svgrepo-com" transform="translate(1361.864 613.184)">
      <path id="Path_6-3" data-name="Path 6" d="M22.6,25.632a1.132,1.132,0,0,1-.8-.333l-.71-.71a1.136,1.136,0,0,1,1.508-1.694L33.153,12.333a1.136,1.136,0,0,1,1.607,1.607L23.4,25.3A1.132,1.132,0,0,1,22.6,25.632Z" transform="translate(-8.964 -5.184)" fill="rgba(183,183,225,0.64)"/>
      <path id="Path_7-3" data-name="Path 7" d="M8.816,25.632a1.132,1.132,0,0,1-.8-.333l-5.68-5.68a1.136,1.136,0,0,1,1.607-1.607l4.877,4.877L19.373,12.333a1.136,1.136,0,0,1,1.607,1.607L9.619,25.3A1.132,1.132,0,0,1,8.816,25.632Z" transform="translate(-0.864 -5.184)" fill="rgba(183,183,225,0.64)"/>
    </g>
    <g id="Group_3" data-name="Group 3">
      <circle id="Ellipse_4" data-name="Ellipse 4" cx="3.5" cy="3.5" r="3.5" transform="translate(1060 263)" fill="#f4f3f5"/>
      <circle id="Ellipse_5" data-name="Ellipse 5" cx="6.5" cy="6.5" r="6.5" transform="translate(1063 254)" fill="#f4f3f5"/>
      <ellipse id="Ellipse_6" data-name="Ellipse 6" cx="32.5" cy="17" rx="32.5" ry="17" transform="translate(1058 231)" fill="#f4f3f5"/>
    </g>
    <text id="MM_DD_YYYY" data-name="MM/DD/YYYY" transform="translate(480 681)" fill="#fffcfc" font-size="10" font-family="Poppins-Light, Poppins" font-weight="300"><tspan x="0" y="0">MM/DD/YYYY</tspan></text>
    <text id="MM_DD_YYYY-2" data-name="MM/DD/YYYY" transform="translate(819 681)" fill="rgba(183,183,225,0.64)" font-size="10" font-family="Poppins-Light, Poppins" font-weight="300"><tspan x="0" y="0">MM/DD/YYYY</tspan></text>
    <text id="MM_DD_YYYY-3" data-name="MM/DD/YYYY" transform="translate(1158 681)" fill="rgba(183,183,225,0.64)" font-size="10" font-family="Poppins-Light, Poppins" font-weight="300"><tspan x="0" y="0">MM/DD/YYYY</tspan></text>
    <text id="hh:mm:ss" transform="translate(555 681)" fill="#fffcfc" font-size="10" font-family="Poppins-Light, Poppins" font-weight="300"><tspan x="0" y="0">hh:mm:ss</tspan></text>
    <text id="hh:mm:ss-2" data-name="hh:mm:ss" transform="translate(894 681)" fill="rgba(183,183,225,0.64)" font-size="10" font-family="Poppins-Light, Poppins" font-weight="300"><tspan x="0" y="0">hh:mm:ss</tspan></text>
    <text id="hh:mm:ss-3" data-name="hh:mm:ss" transform="translate(1233 681)" fill="rgba(183,183,225,0.64)" font-size="10" font-family="Poppins-Light, Poppins" font-weight="300"><tspan x="0" y="0">hh:mm:ss</tspan></text>
    <g id="Group_8" data-name="Group 8">
      <rect id="Rectangle_10" data-name="Rectangle 10" width="26" height="2" rx="1" transform="translate(45 29)" fill="#e9e3fe"/>
      <rect id="Rectangle_11" data-name="Rectangle 11" width="26" height="2" rx="1" transform="translate(45 40)" fill="#e9e3fe"/>
      <rect id="Rectangle_12" data-name="Rectangle 12" width="26" height="2" rx="1" transform="translate(45 51)" fill="#e9e3fe"/>
    </g>
    <g id="Group_4" data-name="Group 4" transform="translate(170)">
      <g data-type="innerShadowGroup">
        <rect id="Rectangle_9-5" data-name="Rectangle 9" width="134" height="35" rx="9" transform="translate(462 785)" fill="#886fe1"/>
        <g transform="matrix(1, 0, 0, 1, -170, 0)" filter="url(#Rectangle_9)">
          <rect id="Rectangle_9-6" data-name="Rectangle 9" width="134" height="35" rx="9" transform="translate(632 785)" fill="#fff"/>
        </g>
        <g id="Rectangle_9-7" data-name="Rectangle 9" transform="translate(462 785)" fill="none" stroke="#707070" stroke-width="0.3">
          <rect width="134" height="35" rx="9" stroke="none"/>
          <rect x="0.15" y="0.15" width="133.7" height="34.7" rx="8.85" fill="none"/>
        </g>
      </g>
      <text id="Education" transform="translate(492 808)" fill="#fff" font-size="15" font-family="Poppins-Light, Poppins" font-weight="300"><tspan x="0" y="0">Education</tspan></text>
    </g>
    <g id="Group_5" data-name="Group 5" transform="translate(344)">
      <g data-type="innerShadowGroup">
        <rect id="Rectangle_9-8" data-name="Rectangle 9" width="134" height="35" rx="9" transform="translate(462 785)" fill="#886fe1"/>
        <g transform="matrix(1, 0, 0, 1, -344, 0)" filter="url(#Rectangle_9-2)">
          <rect id="Rectangle_9-9" data-name="Rectangle 9" width="134" height="35" rx="9" transform="translate(806 785)" fill="#fff"/>
        </g>
        <g id="Rectangle_9-10" data-name="Rectangle 9" transform="translate(462 785)" fill="none" stroke="#707070" stroke-width="0.3">
          <rect width="134" height="35" rx="9" stroke="none"/>
          <rect x="0.15" y="0.15" width="133.7" height="34.7" rx="8.85" fill="none"/>
        </g>
      </g>
      <text id="Work" transform="translate(511 808)" fill="#fff" font-size="15" font-family="Poppins-Light, Poppins" font-weight="300"><tspan x="0" y="0">Work</tspan></text>
    </g>
    <g id="Group_6" data-name="Group 6" transform="translate(518)">
      <g data-type="innerShadowGroup">
        <rect id="Rectangle_9-11" data-name="Rectangle 9" width="134" height="35" rx="9" transform="translate(462 785)" fill="#886fe1"/>
        <g transform="matrix(1, 0, 0, 1, -518, 0)" filter="url(#Rectangle_9-3)">
          <rect id="Rectangle_9-12" data-name="Rectangle 9" width="134" height="35" rx="9" transform="translate(980 785)" fill="#fff"/>
        </g>
        <g id="Rectangle_9-13" data-name="Rectangle 9" transform="translate(462 785)" fill="none" stroke="#707070" stroke-width="0.3">
          <rect width="134" height="35" rx="9" stroke="none"/>
          <rect x="0.15" y="0.15" width="133.7" height="34.7" rx="8.85" fill="none"/>
        </g>
      </g>
      <text id="Personal" transform="translate(497 808)" fill="#fff" font-size="15" font-family="Poppins-Light, Poppins" font-weight="300"><tspan x="0" y="0">Personal</tspan></text>
    </g>
    <g id="Group_7" data-name="Group 7" transform="translate(692)">
      <g data-type="innerShadowGroup">
        <rect id="Rectangle_9-14" data-name="Rectangle 9" width="134" height="35" rx="9" transform="translate(462 785)" fill="#886fe1"/>
        <g transform="matrix(1, 0, 0, 1, -692, 0)" filter="url(#Rectangle_9-4)">
          <rect id="Rectangle_9-15" data-name="Rectangle 9" width="134" height="35" rx="9" transform="translate(1154 785)" fill="#fff"/>
        </g>
        <g id="Rectangle_9-16" data-name="Rectangle 9" transform="translate(462 785)" fill="none" stroke="#707070" stroke-width="0.3">
          <rect width="134" height="35" rx="9" stroke="none"/>
          <rect x="0.15" y="0.15" width="133.7" height="34.7" rx="8.85" fill="none"/>
        </g>
      </g>
      <text id="Hobbies" transform="translate(499 808)" fill="#fff" font-size="15" font-family="Poppins-Light, Poppins" font-weight="300"><tspan x="0" y="0">Hobbies</tspan></text>
    </g>
    <path id="favorite-svgrepo-com-3" data-name="favorite-svgrepo-com" d="M8.426,16.25c-.505,0-1.008-.47-1.879-1.458-.077-.087-.143-.163-.2-.22-.333-.362-.732-.79-1.118-1.2-.363-.389-.707-.756-1-1.075C3.253,11.229,2.532,10.46,2.1,10c-.245-.261-.406-.433-.485-.521A5.4,5.4,0,0,1,.322,6.822,4.525,4.525,0,0,1,.8,3.815a4.85,4.85,0,0,1,2.433-2.24A4.609,4.609,0,0,1,5,1.25,4.718,4.718,0,0,1,8.024,2.6l.023.021.4.389L8.89,2.6l.018-.014A4.65,4.65,0,0,1,11.9,1.25a4.707,4.707,0,0,1,4.129,2.56,4.887,4.887,0,0,1-.653,5.667c-.315.354-.7.758-1.394,1.492-.4.426-.908.957-1.559,1.648-.273.29-.6.627-.939.984-.407.424-.867.9-1.329,1.394-.125.132-.236.255-.334.362C9.343,15.875,9,16.25,8.426,16.25ZM5,2.3A3.583,3.583,0,0,0,1.719,4.324a3.957,3.957,0,0,0,.675,4.455c.072.08.231.25.471.506C3.3,9.746,4.02,10.517,5,11.586c.291.316.633.682.994,1.069.388.415.789.844,1.125,1.21.059.065.129.144.21.235a6.893,6.893,0,0,0,1.124,1.1c.111-.031.293-.225.587-.548.1-.111.216-.237.346-.375.465-.494.928-.976,1.336-1.4.341-.355.663-.691.933-.977.653-.692,1.157-1.224,1.562-1.65.688-.725,1.068-1.125,1.371-1.467a3.842,3.842,0,0,0,.526-4.452A3.683,3.683,0,0,0,11.9,2.3c-.706,0-1.23.247-2.325,1.1L8.442,4.454,7.333,3.387A3.738,3.738,0,0,0,5,2.3Z" transform="translate(722.354 668.75)" fill="#fff" stroke="#fff" stroke-width="1"/>
    <g data-type="innerShadowGroup">
      <path id="favorite-svgrepo-com-4" data-name="favorite-svgrepo-com" d="M8.426,16.25c-.505,0-1.008-.47-1.879-1.458-.077-.087-.143-.163-.2-.22-.333-.362-.732-.79-1.118-1.2-.363-.389-.707-.756-1-1.075C3.253,11.229,2.532,10.46,2.1,10c-.245-.261-.406-.433-.485-.521A5.4,5.4,0,0,1,.322,6.822,4.525,4.525,0,0,1,.8,3.815a4.85,4.85,0,0,1,2.433-2.24A4.609,4.609,0,0,1,5,1.25,4.718,4.718,0,0,1,8.024,2.6l.023.021.4.389L8.89,2.6l.018-.014A4.65,4.65,0,0,1,11.9,1.25a4.707,4.707,0,0,1,4.129,2.56,4.887,4.887,0,0,1-.653,5.667c-.315.354-.7.758-1.394,1.492-.4.426-.908.957-1.559,1.648-.273.29-.6.627-.939.984-.407.424-.867.9-1.329,1.394-.125.132-.236.255-.334.362C9.343,15.875,9,16.25,8.426,16.25ZM5,2.3A3.583,3.583,0,0,0,1.719,4.324a3.957,3.957,0,0,0,.675,4.455c.072.08.231.25.471.506C3.3,9.746,4.02,10.517,5,11.586c.291.316.633.682.994,1.069.388.415.789.844,1.125,1.21.059.065.129.144.21.235a6.893,6.893,0,0,0,1.124,1.1c.111-.031.293-.225.587-.548.1-.111.216-.237.346-.375.465-.494.928-.976,1.336-1.4.341-.355.663-.691.933-.977.653-.692,1.157-1.224,1.562-1.65.688-.725,1.068-1.125,1.371-1.467a3.842,3.842,0,0,0,.526-4.452A3.683,3.683,0,0,0,11.9,2.3c-.706,0-1.23.247-2.325,1.1L8.442,4.454,7.333,3.387A3.738,3.738,0,0,0,5,2.3Z" transform="translate(1060.552 668.75)" fill="rgba(183,183,225,0.64)"/>
      <g transform="matrix(1, 0, 0, 1, 0, 0)" filter="url(#favorite-svgrepo-com)">
        <path id="favorite-svgrepo-com-5" data-name="favorite-svgrepo-com" d="M8.426,16.25c-.505,0-1.008-.47-1.879-1.458-.077-.087-.143-.163-.2-.22-.333-.362-.732-.79-1.118-1.2-.363-.389-.707-.756-1-1.075C3.253,11.229,2.532,10.46,2.1,10c-.245-.261-.406-.433-.485-.521A5.4,5.4,0,0,1,.322,6.822,4.525,4.525,0,0,1,.8,3.815a4.85,4.85,0,0,1,2.433-2.24A4.609,4.609,0,0,1,5,1.25,4.718,4.718,0,0,1,8.024,2.6l.023.021.4.389L8.89,2.6l.018-.014A4.65,4.65,0,0,1,11.9,1.25a4.707,4.707,0,0,1,4.129,2.56,4.887,4.887,0,0,1-.653,5.667c-.315.354-.7.758-1.394,1.492-.4.426-.908.957-1.559,1.648-.273.29-.6.627-.939.984-.407.424-.867.9-1.329,1.394-.125.132-.236.255-.334.362C9.343,15.875,9,16.25,8.426,16.25ZM5,2.3A3.583,3.583,0,0,0,1.719,4.324a3.957,3.957,0,0,0,.675,4.455c.072.08.231.25.471.506C3.3,9.746,4.02,10.517,5,11.586c.291.316.633.682.994,1.069.388.415.789.844,1.125,1.21.059.065.129.144.21.235a6.893,6.893,0,0,0,1.124,1.1c.111-.031.293-.225.587-.548.1-.111.216-.237.346-.375.465-.494.928-.976,1.336-1.4.341-.355.663-.691.933-.977.653-.692,1.157-1.224,1.562-1.65.688-.725,1.068-1.125,1.371-1.467a3.842,3.842,0,0,0,.526-4.452A3.683,3.683,0,0,0,11.9,2.3c-.706,0-1.23.247-2.325,1.1L8.442,4.454,7.333,3.387A3.738,3.738,0,0,0,5,2.3Z" transform="translate(1060.55 668.75)" fill="#fff"/>
      </g>
      <path id="favorite-svgrepo-com-6" data-name="favorite-svgrepo-com" d="M8.426,16.25c-.505,0-1.008-.47-1.879-1.458-.077-.087-.143-.163-.2-.22-.333-.362-.732-.79-1.118-1.2-.363-.389-.707-.756-1-1.075C3.253,11.229,2.532,10.46,2.1,10c-.245-.261-.406-.433-.485-.521A5.4,5.4,0,0,1,.322,6.822,4.525,4.525,0,0,1,.8,3.815a4.85,4.85,0,0,1,2.433-2.24A4.609,4.609,0,0,1,5,1.25,4.718,4.718,0,0,1,8.024,2.6l.023.021.4.389L8.89,2.6l.018-.014A4.65,4.65,0,0,1,11.9,1.25a4.707,4.707,0,0,1,4.129,2.56,4.887,4.887,0,0,1-.653,5.667c-.315.354-.7.758-1.394,1.492-.4.426-.908.957-1.559,1.648-.273.29-.6.627-.939.984-.407.424-.867.9-1.329,1.394-.125.132-.236.255-.334.362C9.343,15.875,9,16.25,8.426,16.25ZM5,2.3A3.583,3.583,0,0,0,1.719,4.324a3.957,3.957,0,0,0,.675,4.455c.072.08.231.25.471.506C3.3,9.746,4.02,10.517,5,11.586c.291.316.633.682.994,1.069.388.415.789.844,1.125,1.21.059.065.129.144.21.235a6.893,6.893,0,0,0,1.124,1.1c.111-.031.293-.225.587-.548.1-.111.216-.237.346-.375.465-.494.928-.976,1.336-1.4.341-.355.663-.691.933-.977.653-.692,1.157-1.224,1.562-1.65.688-.725,1.068-1.125,1.371-1.467a3.842,3.842,0,0,0,.526-4.452A3.683,3.683,0,0,0,11.9,2.3c-.706,0-1.23.247-2.325,1.1L8.442,4.454,7.333,3.387A3.738,3.738,0,0,0,5,2.3Z" transform="translate(1060.552 668.75)" fill="none" stroke="rgba(183,183,225,0.64)" stroke-width="1"/>
    </g>
    <g data-type="innerShadowGroup">
      <path id="favorite-svgrepo-com-7" data-name="favorite-svgrepo-com" d="M8.426,16.25c-.505,0-1.008-.47-1.879-1.458-.077-.087-.143-.163-.2-.22-.333-.362-.732-.79-1.118-1.2-.363-.389-.707-.756-1-1.075C3.253,11.229,2.532,10.46,2.1,10c-.245-.261-.406-.433-.485-.521A5.4,5.4,0,0,1,.322,6.822,4.525,4.525,0,0,1,.8,3.815a4.85,4.85,0,0,1,2.433-2.24A4.609,4.609,0,0,1,5,1.25,4.718,4.718,0,0,1,8.024,2.6l.023.021.4.389L8.89,2.6l.018-.014A4.65,4.65,0,0,1,11.9,1.25a4.707,4.707,0,0,1,4.129,2.56,4.887,4.887,0,0,1-.653,5.667c-.315.354-.7.758-1.394,1.492-.4.426-.908.957-1.559,1.648-.273.29-.6.627-.939.984-.407.424-.867.9-1.329,1.394-.125.132-.236.255-.334.362C9.343,15.875,9,16.25,8.426,16.25ZM5,2.3A3.583,3.583,0,0,0,1.719,4.324a3.957,3.957,0,0,0,.675,4.455c.072.08.231.25.471.506C3.3,9.746,4.02,10.517,5,11.586c.291.316.633.682.994,1.069.388.415.789.844,1.125,1.21.059.065.129.144.21.235a6.893,6.893,0,0,0,1.124,1.1c.111-.031.293-.225.587-.548.1-.111.216-.237.346-.375.465-.494.928-.976,1.336-1.4.341-.355.663-.691.933-.977.653-.692,1.157-1.224,1.562-1.65.688-.725,1.068-1.125,1.371-1.467a3.842,3.842,0,0,0,.526-4.452A3.683,3.683,0,0,0,11.9,2.3c-.706,0-1.23.247-2.325,1.1L8.442,4.454,7.333,3.387A3.738,3.738,0,0,0,5,2.3Z" transform="translate(1399.552 668.75)" fill="rgba(183,183,225,0.64)"/>
      <g transform="matrix(1, 0, 0, 1, 0, 0)" filter="url(#favorite-svgrepo-com-2)">
        <path id="favorite-svgrepo-com-8" data-name="favorite-svgrepo-com" d="M8.426,16.25c-.505,0-1.008-.47-1.879-1.458-.077-.087-.143-.163-.2-.22-.333-.362-.732-.79-1.118-1.2-.363-.389-.707-.756-1-1.075C3.253,11.229,2.532,10.46,2.1,10c-.245-.261-.406-.433-.485-.521A5.4,5.4,0,0,1,.322,6.822,4.525,4.525,0,0,1,.8,3.815a4.85,4.85,0,0,1,2.433-2.24A4.609,4.609,0,0,1,5,1.25,4.718,4.718,0,0,1,8.024,2.6l.023.021.4.389L8.89,2.6l.018-.014A4.65,4.65,0,0,1,11.9,1.25a4.707,4.707,0,0,1,4.129,2.56,4.887,4.887,0,0,1-.653,5.667c-.315.354-.7.758-1.394,1.492-.4.426-.908.957-1.559,1.648-.273.29-.6.627-.939.984-.407.424-.867.9-1.329,1.394-.125.132-.236.255-.334.362C9.343,15.875,9,16.25,8.426,16.25ZM5,2.3A3.583,3.583,0,0,0,1.719,4.324a3.957,3.957,0,0,0,.675,4.455c.072.08.231.25.471.506C3.3,9.746,4.02,10.517,5,11.586c.291.316.633.682.994,1.069.388.415.789.844,1.125,1.21.059.065.129.144.21.235a6.893,6.893,0,0,0,1.124,1.1c.111-.031.293-.225.587-.548.1-.111.216-.237.346-.375.465-.494.928-.976,1.336-1.4.341-.355.663-.691.933-.977.653-.692,1.157-1.224,1.562-1.65.688-.725,1.068-1.125,1.371-1.467a3.842,3.842,0,0,0,.526-4.452A3.683,3.683,0,0,0,11.9,2.3c-.706,0-1.23.247-2.325,1.1L8.442,4.454,7.333,3.387A3.738,3.738,0,0,0,5,2.3Z" transform="translate(1399.55 668.75)" fill="#fff"/>
      </g>
      <path id="favorite-svgrepo-com-9" data-name="favorite-svgrepo-com" d="M8.426,16.25c-.505,0-1.008-.47-1.879-1.458-.077-.087-.143-.163-.2-.22-.333-.362-.732-.79-1.118-1.2-.363-.389-.707-.756-1-1.075C3.253,11.229,2.532,10.46,2.1,10c-.245-.261-.406-.433-.485-.521A5.4,5.4,0,0,1,.322,6.822,4.525,4.525,0,0,1,.8,3.815a4.85,4.85,0,0,1,2.433-2.24A4.609,4.609,0,0,1,5,1.25,4.718,4.718,0,0,1,8.024,2.6l.023.021.4.389L8.89,2.6l.018-.014A4.65,4.65,0,0,1,11.9,1.25a4.707,4.707,0,0,1,4.129,2.56,4.887,4.887,0,0,1-.653,5.667c-.315.354-.7.758-1.394,1.492-.4.426-.908.957-1.559,1.648-.273.29-.6.627-.939.984-.407.424-.867.9-1.329,1.394-.125.132-.236.255-.334.362C9.343,15.875,9,16.25,8.426,16.25ZM5,2.3A3.583,3.583,0,0,0,1.719,4.324a3.957,3.957,0,0,0,.675,4.455c.072.08.231.25.471.506C3.3,9.746,4.02,10.517,5,11.586c.291.316.633.682.994,1.069.388.415.789.844,1.125,1.21.059.065.129.144.21.235a6.893,6.893,0,0,0,1.124,1.1c.111-.031.293-.225.587-.548.1-.111.216-.237.346-.375.465-.494.928-.976,1.336-1.4.341-.355.663-.691.933-.977.653-.692,1.157-1.224,1.562-1.65.688-.725,1.068-1.125,1.371-1.467a3.842,3.842,0,0,0,.526-4.452A3.683,3.683,0,0,0,11.9,2.3c-.706,0-1.23.247-2.325,1.1L8.442,4.454,7.333,3.387A3.738,3.738,0,0,0,5,2.3Z" transform="translate(1399.552 668.75)" fill="none" stroke="rgba(183,183,225,0.64)" stroke-width="1"/>
    </g>
    <g id="Group_12" data-name="Group 12" transform="translate(581.404 -280.064)">
      <ellipse id="Ellipse_7" data-name="Ellipse 7" cx="13.5" cy="12.5" rx="13.5" ry="12.5" transform="translate(326.596 414.064)" fill="#c4b8ec"/>
      <path id="Path_3-4" data-name="Path 3" d="M4556.716,722.556s2.384-10.514,9.729-13.483-47.671-.351-30.791,52.046c5.006,14.815,21.522,25.511,30.791,20.078,9.346-5.471,10.151-24.971,18.161-28.17s13.875,15.375,13.875,15.375,5.353,14.082,10.042,15.445c3.652,1.084,9.39-10.8,11.295-16.595,3.75-11.409,11.27-23.782,19.8-16.874s11.476,36.292,17.572,35.979c1.99,0,6.89-9.556,7.529-20.076s-4.972-22-4.972-22-7.567-17.747-17.9-19.281-16,4.34-20.918,11.575-6.484,13.222-10.181,12.83-3.088-5.668-7.112-12.83-8.786-14.643-17.989-10.041-13.737,23.289-20.988,27.333-20.451-3.22-11.854-15.724S4556.716,722.556,4556.716,722.556Z" transform="translate(-4220 -302.337)" fill="#c4b8ec"/>
      <g id="Group_10" data-name="Group 10" transform="translate(353.382 390.201)">
        <circle id="Ellipse_4-2" data-name="Ellipse 4" cx="1.5" cy="1.5" r="1.5" transform="translate(2.214 21.863)" fill="#c4b8ec"/>
        <ellipse id="Ellipse_5-2" data-name="Ellipse 5" cx="4" cy="4.5" rx="4" ry="4.5" transform="translate(3.214 14.863)" fill="#c4b8ec"/>
        <ellipse id="Ellipse_6-2" data-name="Ellipse 6" cx="20.5" cy="11" rx="20.5" ry="11" transform="translate(0.214 -0.137)" fill="#c4b8ec"/>
      </g>
    </g>
  </g>
</svg>
